<svg width="258" height="86" viewBox="0 0 258 86" fill="none" xmlns="http://www.w3.org/2000/svg">
<g filter="url(#filter0_d_5244_681)">
<rect x="19" y="6" width="220" height="48" rx="7" fill="#23856D" fill-opacity="0.2"/>
<g clip-path="url(#clip0_5244_681)">
<rect x="31" y="18" width="24" height="24" rx="12" fill="white"/>
<path d="M39.7765 33.2146L40.13 33.5681L40.4836 33.2146L48.95 24.7482C49.1101 24.588 49.3134 24.5 49.6009 24.5C49.8884 24.5 50.0917 24.588 50.2518 24.7482L50.6004 24.3997L50.2518 24.7482C50.412 24.9083 50.5 25.1116 50.5 25.3991C50.5 25.6866 50.412 25.8899 50.2518 26.05L50.6054 26.4036L50.2518 26.05L40.781 35.5209C40.5814 35.7204 40.3714 35.8049 40.13 35.8049C39.8887 35.8049 39.6787 35.7204 39.4791 35.5209L35.7482 31.79L35.4005 32.1377L35.7482 31.79C35.588 31.6298 35.5 31.4265 35.5 31.139C35.5 30.8515 35.588 30.6482 35.7482 30.4881C35.9083 30.3279 36.1116 30.2399 36.3991 30.2399C36.6866 30.2399 36.8899 30.3279 37.05 30.4881L39.7765 33.2146Z" fill="#2DC071" stroke="#2DC071"/>
</g>
<path d="M70.496 31.732H66.896V30.7H70.496V31.732ZM68.528 26.716H68.864L66.284 34H65.084L68.096 25.6H69.296L72.308 34H71.108L68.528 26.716ZM75.8976 34.12C75.2336 34.12 74.6756 33.986 74.2236 33.718C73.7756 33.446 73.4356 33.082 73.2036 32.626C72.9756 32.166 72.8616 31.656 72.8616 31.096C72.8616 30.512 72.9716 29.986 73.1916 29.518C73.4156 29.05 73.7576 28.68 74.2176 28.408C74.6776 28.136 75.2656 28 75.9816 28C76.2896 28 76.5796 28.032 76.8516 28.096C77.1276 28.156 77.3736 28.24 77.5896 28.348L77.4216 29.296C77.2016 29.192 76.9676 29.11 76.7196 29.05C76.4756 28.99 76.2216 28.96 75.9576 28.96C75.3096 28.96 74.8156 29.144 74.4756 29.512C74.1356 29.88 73.9656 30.392 73.9656 31.048C73.9656 31.688 74.1276 32.202 74.4516 32.59C74.7756 32.978 75.2696 33.172 75.9336 33.172C76.2056 33.172 76.4656 33.14 76.7136 33.076C76.9656 33.012 77.2056 32.924 77.4336 32.812L77.5776 33.676C77.4176 33.788 77.1836 33.89 76.8756 33.982C76.5676 34.074 76.2416 34.12 75.8976 34.12ZM81.4648 34.12C80.8008 34.12 80.2428 33.986 79.7908 33.718C79.3428 33.446 79.0028 33.082 78.7708 32.626C78.5428 32.166 78.4288 31.656 78.4288 31.096C78.4288 30.512 78.5388 29.986 78.7588 29.518C78.9828 29.05 79.3248 28.68 79.7848 28.408C80.2448 28.136 80.8328 28 81.5488 28C81.8568 28 82.1468 28.032 82.4188 28.096C82.6948 28.156 82.9408 28.24 83.1568 28.348L82.9888 29.296C82.7688 29.192 82.5348 29.11 82.2868 29.05C82.0428 28.99 81.7888 28.96 81.5248 28.96C80.8768 28.96 80.3828 29.144 80.0428 29.512C79.7028 29.88 79.5328 30.392 79.5328 31.048C79.5328 31.688 79.6948 32.202 80.0188 32.59C80.3428 32.978 80.8368 33.172 81.5008 33.172C81.7728 33.172 82.0328 33.14 82.2808 33.076C82.5328 33.012 82.7728 32.924 83.0008 32.812L83.1448 33.676C82.9848 33.788 82.7508 33.89 82.4428 33.982C82.1348 34.074 81.8088 34.12 81.4648 34.12ZM87.152 34.12C86.46 34.12 85.878 33.978 85.406 33.694C84.934 33.41 84.576 33.034 84.332 32.566C84.092 32.094 83.972 31.576 83.972 31.012C83.972 30.464 84.084 29.962 84.308 29.506C84.536 29.05 84.864 28.686 85.292 28.414C85.724 28.138 86.244 28 86.852 28C87.34 28 87.774 28.098 88.154 28.294C88.538 28.486 88.838 28.768 89.054 29.14C89.274 29.508 89.384 29.956 89.384 30.484C89.384 30.568 89.38 30.66 89.372 30.76C89.368 30.856 89.356 30.956 89.336 31.06H85.076C85.128 31.604 85.258 32.028 85.466 32.332C85.674 32.636 85.936 32.85 86.252 32.974C86.568 33.098 86.912 33.16 87.284 33.16C87.556 33.16 87.84 33.132 88.136 33.076C88.432 33.02 88.712 32.932 88.976 32.812L89.12 33.664C88.892 33.764 88.614 33.866 88.286 33.97C87.958 34.07 87.58 34.12 87.152 34.12ZM85.172 30.316H88.268C88.268 30.04 88.216 29.8 88.112 29.596C88.008 29.392 87.85 29.236 87.638 29.128C87.426 29.016 87.156 28.96 86.828 28.96C86.348 28.96 85.978 29.08 85.718 29.32C85.462 29.556 85.28 29.888 85.172 30.316ZM90.6726 36.904V28.12H91.5126L91.7046 29.464L91.4046 29.248C91.6526 28.864 91.9586 28.56 92.3226 28.336C92.6866 28.112 93.1326 28 93.6606 28C94.1966 28 94.6566 28.136 95.0406 28.408C95.4246 28.68 95.7186 29.048 95.9226 29.512C96.1266 29.972 96.2286 30.488 96.2286 31.06C96.2286 31.632 96.1326 32.15 95.9406 32.614C95.7486 33.074 95.4626 33.44 95.0826 33.712C94.7026 33.984 94.2286 34.12 93.6606 34.12C93.1926 34.12 92.7686 34.024 92.3886 33.832C92.0126 33.636 91.7406 33.344 91.5726 32.956L91.7526 32.74V36.904H90.6726ZM93.4566 33.16C93.9806 33.16 94.3886 32.976 94.6806 32.608C94.9766 32.236 95.1246 31.72 95.1246 31.06C95.1246 30.4 94.9766 29.886 94.6806 29.518C94.3886 29.146 93.9806 28.96 93.4566 28.96C93.1326 28.96 92.8366 29.038 92.5686 29.194C92.3046 29.346 92.0926 29.578 91.9326 29.89C91.7726 30.198 91.6926 30.588 91.6926 31.06C91.6926 31.552 91.7726 31.952 91.9326 32.26C92.0926 32.568 92.3046 32.796 92.5686 32.944C92.8366 33.088 93.1326 33.16 93.4566 33.16ZM99.4983 34.12C99.1263 34.12 98.8283 34.052 98.6043 33.916C98.3803 33.78 98.2163 33.606 98.1123 33.394C98.0123 33.178 97.9623 32.952 97.9623 32.716V28.96H96.9543L97.0503 28.12H97.9623V26.668L99.0423 26.56V28.12H100.59V28.96H99.0423V32.056C99.0423 32.432 99.0643 32.704 99.1083 32.872C99.1523 33.04 99.2603 33.146 99.4323 33.19C99.6083 33.234 99.8903 33.256 100.278 33.256H100.554L100.47 34.12H99.4983ZM108.581 34.168C107.765 34.168 107.037 33.99 106.397 33.634C105.761 33.274 105.259 32.768 104.891 32.116C104.527 31.46 104.345 30.688 104.345 29.8C104.345 28.912 104.529 28.142 104.897 27.49C105.269 26.834 105.777 26.328 106.421 25.972C107.069 25.612 107.805 25.432 108.629 25.432C109.057 25.432 109.465 25.478 109.853 25.57C110.241 25.662 110.581 25.78 110.873 25.924L110.753 26.98C110.453 26.836 110.123 26.714 109.763 26.614C109.403 26.514 109.021 26.464 108.617 26.464C107.957 26.464 107.403 26.614 106.955 26.914C106.507 27.21 106.167 27.61 105.935 28.114C105.707 28.618 105.593 29.18 105.593 29.8C105.593 30.42 105.705 30.982 105.929 31.486C106.157 31.99 106.493 32.392 106.937 32.692C107.385 32.988 107.937 33.136 108.593 33.136C109.009 33.136 109.393 33.092 109.745 33.004C110.101 32.912 110.437 32.788 110.753 32.632L110.873 33.688C110.573 33.824 110.235 33.938 109.859 34.03C109.483 34.122 109.057 34.168 108.581 34.168ZM114.139 34.12C113.679 34.12 113.287 34.028 112.963 33.844C112.639 33.656 112.391 33.372 112.219 32.992C112.051 32.612 111.967 32.128 111.967 31.54V28.12H113.047V31.24C113.047 31.864 113.153 32.34 113.365 32.668C113.581 32.996 113.931 33.16 114.415 33.16C114.747 33.16 115.055 33.08 115.339 32.92C115.623 32.76 115.819 32.504 115.927 32.152L115.771 32.74V28.12H116.851V34H115.891L115.675 32.848L115.963 33.04C115.767 33.404 115.527 33.676 115.243 33.856C114.963 34.032 114.595 34.12 114.139 34.12ZM120.188 34.12C119.668 34.12 119.236 34.058 118.892 33.934C118.552 33.81 118.312 33.7 118.172 33.604L118.304 32.56C118.432 32.672 118.658 32.8 118.982 32.944C119.306 33.088 119.692 33.16 120.14 33.16C120.52 33.16 120.81 33.096 121.01 32.968C121.214 32.84 121.316 32.66 121.316 32.428C121.316 32.224 121.25 32.06 121.118 31.936C120.99 31.808 120.834 31.708 120.65 31.636C120.47 31.56 120.3 31.5 120.14 31.456C119.872 31.384 119.594 31.294 119.306 31.186C119.022 31.074 118.782 30.908 118.586 30.688C118.39 30.468 118.292 30.16 118.292 29.764C118.292 29.464 118.364 29.18 118.508 28.912C118.652 28.64 118.886 28.42 119.21 28.252C119.534 28.084 119.964 28 120.5 28C120.892 28 121.21 28.042 121.454 28.126C121.702 28.206 121.916 28.292 122.096 28.384L121.964 29.368C121.792 29.224 121.592 29.102 121.364 29.002C121.136 28.902 120.856 28.852 120.524 28.852C120.188 28.852 119.914 28.916 119.702 29.044C119.49 29.168 119.384 29.368 119.384 29.644C119.384 29.92 119.496 30.116 119.72 30.232C119.948 30.348 120.292 30.476 120.752 30.616C120.896 30.656 121.062 30.714 121.25 30.79C121.442 30.866 121.628 30.968 121.808 31.096C121.988 31.224 122.136 31.392 122.252 31.6C122.372 31.804 122.432 32.06 122.432 32.368C122.432 32.628 122.37 32.894 122.246 33.166C122.122 33.434 121.898 33.66 121.574 33.844C121.25 34.028 120.788 34.12 120.188 34.12ZM125.717 34.12C125.345 34.12 125.047 34.052 124.823 33.916C124.599 33.78 124.435 33.606 124.331 33.394C124.231 33.178 124.181 32.952 124.181 32.716V28.96H123.173L123.269 28.12H124.181V26.668L125.261 26.56V28.12H126.809V28.96H125.261V32.056C125.261 32.432 125.283 32.704 125.327 32.872C125.371 33.04 125.479 33.146 125.651 33.19C125.827 33.234 126.109 33.256 126.497 33.256H126.773L126.689 34.12H125.717ZM130.453 34.12C129.837 34.12 129.311 33.984 128.875 33.712C128.443 33.436 128.111 33.068 127.879 32.608C127.651 32.144 127.537 31.628 127.537 31.06C127.537 30.492 127.651 29.978 127.879 29.518C128.111 29.054 128.443 28.686 128.875 28.414C129.311 28.138 129.837 28 130.453 28C131.065 28 131.589 28.138 132.025 28.414C132.461 28.686 132.793 29.054 133.021 29.518C133.253 29.978 133.369 30.492 133.369 31.06C133.369 31.628 133.253 32.144 133.021 32.608C132.793 33.068 132.461 33.436 132.025 33.712C131.589 33.984 131.065 34.12 130.453 34.12ZM130.453 33.16C131.037 33.16 131.485 32.976 131.797 32.608C132.109 32.236 132.265 31.72 132.265 31.06C132.265 30.4 132.109 29.886 131.797 29.518C131.485 29.146 131.037 28.96 130.453 28.96C129.873 28.96 129.425 29.146 129.109 29.518C128.797 29.886 128.641 30.4 128.641 31.06C128.641 31.72 128.797 32.236 129.109 32.608C129.425 32.976 129.873 33.16 130.453 33.16ZM134.683 34V28.12H135.523L135.739 29.248L135.331 29.056C135.699 28.66 136.057 28.386 136.405 28.234C136.753 28.078 137.119 28 137.503 28C137.791 28 138.067 28.048 138.331 28.144C138.599 28.236 138.839 28.4 139.051 28.636C139.267 28.868 139.439 29.192 139.567 29.608L139.267 29.476C139.443 29.02 139.713 28.66 140.077 28.396C140.441 28.132 140.931 28 141.547 28C142.039 28 142.453 28.092 142.789 28.276C143.125 28.456 143.377 28.734 143.545 29.11C143.717 29.482 143.803 29.956 143.803 30.532V34H142.723V30.544C142.723 29.992 142.615 29.59 142.399 29.338C142.183 29.086 141.831 28.96 141.343 28.96C140.999 28.96 140.723 29.014 140.515 29.122C140.307 29.226 140.149 29.362 140.041 29.53C139.937 29.698 139.867 29.876 139.831 30.064C139.799 30.252 139.783 30.428 139.783 30.592V34H138.703V30.76C138.703 30.28 138.645 29.91 138.529 29.65C138.413 29.39 138.251 29.21 138.043 29.11C137.835 29.01 137.595 28.96 137.323 28.96C136.927 28.96 136.573 29.048 136.261 29.224C135.949 29.396 135.739 29.672 135.631 30.052L135.763 29.464V34H134.683ZM148.226 34.12C147.534 34.12 146.952 33.978 146.48 33.694C146.008 33.41 145.65 33.034 145.406 32.566C145.166 32.094 145.046 31.576 145.046 31.012C145.046 30.464 145.158 29.962 145.382 29.506C145.61 29.05 145.938 28.686 146.366 28.414C146.798 28.138 147.318 28 147.926 28C148.414 28 148.848 28.098 149.228 28.294C149.612 28.486 149.912 28.768 150.128 29.14C150.348 29.508 150.458 29.956 150.458 30.484C150.458 30.568 150.454 30.66 150.446 30.76C150.442 30.856 150.43 30.956 150.41 31.06H146.15C146.202 31.604 146.332 32.028 146.54 32.332C146.748 32.636 147.01 32.85 147.326 32.974C147.642 33.098 147.986 33.16 148.358 33.16C148.63 33.16 148.914 33.132 149.21 33.076C149.506 33.02 149.786 32.932 150.05 32.812L150.194 33.664C149.966 33.764 149.688 33.866 149.36 33.97C149.032 34.07 148.654 34.12 148.226 34.12ZM146.246 30.316H149.342C149.342 30.04 149.29 29.8 149.186 29.596C149.082 29.392 148.924 29.236 148.712 29.128C148.5 29.016 148.23 28.96 147.902 28.96C147.422 28.96 147.052 29.08 146.792 29.32C146.536 29.556 146.354 29.888 146.246 30.316ZM151.747 34V28.12H152.635L152.767 29.092C153.067 28.72 153.353 28.446 153.625 28.27C153.901 28.09 154.195 28 154.507 28C154.607 28 154.699 28.012 154.783 28.036L154.675 29.224C154.623 29.212 154.567 29.204 154.507 29.2C154.451 29.192 154.387 29.188 154.315 29.188C154.003 29.188 153.715 29.258 153.451 29.398C153.191 29.534 153.007 29.684 152.899 29.848V34H151.747ZM158.867 34V25.6H161.591C162.175 25.6 162.685 25.69 163.121 25.87C163.557 26.05 163.895 26.328 164.135 26.704C164.375 27.08 164.495 27.564 164.495 28.156C164.495 28.732 164.369 29.214 164.117 29.602C163.869 29.99 163.507 30.296 163.031 30.52L164.915 34H163.523L161.819 30.724C161.807 30.724 161.797 30.724 161.789 30.724C161.781 30.724 161.771 30.724 161.759 30.724H160.067V34H158.867ZM160.067 29.704H161.579C162.151 29.704 162.581 29.566 162.869 29.29C163.161 29.014 163.307 28.636 163.307 28.156C163.307 27.668 163.161 27.29 162.869 27.022C162.581 26.754 162.151 26.62 161.579 26.62H160.067V29.704ZM165.987 34V28.12H167.067V34H165.987ZM165.987 26.8V25.6H167.067V26.8H165.987ZM171.058 34.12C170.558 34.12 170.106 33.984 169.702 33.712C169.298 33.44 168.976 33.074 168.736 32.614C168.5 32.154 168.382 31.64 168.382 31.072C168.382 30.532 168.49 30.028 168.706 29.56C168.926 29.092 169.236 28.716 169.636 28.432C170.036 28.144 170.51 28 171.058 28C171.45 28 171.828 28.086 172.192 28.258C172.56 28.426 172.858 28.708 173.086 29.104L172.858 29.26V25H173.938V34H172.978L172.774 32.752L173.05 32.944C172.878 33.332 172.608 33.626 172.24 33.826C171.872 34.022 171.478 34.12 171.058 34.12ZM171.25 33.16C171.522 33.16 171.79 33.09 172.054 32.95C172.322 32.81 172.542 32.588 172.714 32.284C172.89 31.976 172.978 31.572 172.978 31.072C172.978 30.608 172.89 30.22 172.714 29.908C172.542 29.592 172.322 29.356 172.054 29.2C171.79 29.04 171.522 28.96 171.25 28.96C170.882 28.96 170.566 29.052 170.302 29.236C170.038 29.42 169.836 29.672 169.696 29.992C169.556 30.308 169.486 30.668 169.486 31.072C169.486 31.452 169.556 31.8 169.696 32.116C169.836 32.432 170.038 32.686 170.302 32.878C170.566 33.066 170.882 33.16 171.25 33.16ZM178.407 34.12C177.715 34.12 177.133 33.978 176.661 33.694C176.189 33.41 175.831 33.034 175.587 32.566C175.347 32.094 175.227 31.576 175.227 31.012C175.227 30.464 175.339 29.962 175.563 29.506C175.791 29.05 176.119 28.686 176.547 28.414C176.979 28.138 177.499 28 178.107 28C178.595 28 179.029 28.098 179.409 28.294C179.793 28.486 180.093 28.768 180.309 29.14C180.529 29.508 180.639 29.956 180.639 30.484C180.639 30.568 180.635 30.66 180.627 30.76C180.623 30.856 180.611 30.956 180.591 31.06H176.331C176.383 31.604 176.513 32.028 176.721 32.332C176.929 32.636 177.191 32.85 177.507 32.974C177.823 33.098 178.167 33.16 178.539 33.16C178.811 33.16 179.095 33.132 179.391 33.076C179.687 33.02 179.967 32.932 180.231 32.812L180.375 33.664C180.147 33.764 179.869 33.866 179.541 33.97C179.213 34.07 178.835 34.12 178.407 34.12ZM176.427 30.316H179.523C179.523 30.04 179.471 29.8 179.367 29.596C179.263 29.392 179.105 29.236 178.893 29.128C178.681 29.016 178.411 28.96 178.083 28.96C177.603 28.96 177.233 29.08 176.973 29.32C176.717 29.556 176.535 29.888 176.427 30.316ZM185.051 34V25.6H187.775C188.359 25.6 188.869 25.69 189.305 25.87C189.741 26.05 190.079 26.328 190.319 26.704C190.559 27.08 190.679 27.564 190.679 28.156C190.679 28.732 190.553 29.214 190.301 29.602C190.053 29.99 189.691 30.296 189.215 30.52L191.099 34H189.707L188.003 30.724C187.991 30.724 187.981 30.724 187.973 30.724C187.965 30.724 187.955 30.724 187.943 30.724H186.251V34H185.051ZM186.251 29.704H187.763C188.335 29.704 188.765 29.566 189.053 29.29C189.345 29.014 189.491 28.636 189.491 28.156C189.491 27.668 189.345 27.29 189.053 27.022C188.765 26.754 188.335 26.62 187.763 26.62H186.251V29.704ZM194.85 34.12C194.158 34.12 193.576 33.978 193.104 33.694C192.632 33.41 192.274 33.034 192.03 32.566C191.79 32.094 191.67 31.576 191.67 31.012C191.67 30.464 191.782 29.962 192.006 29.506C192.234 29.05 192.562 28.686 192.99 28.414C193.422 28.138 193.942 28 194.55 28C195.038 28 195.472 28.098 195.852 28.294C196.236 28.486 196.536 28.768 196.752 29.14C196.972 29.508 197.082 29.956 197.082 30.484C197.082 30.568 197.078 30.66 197.07 30.76C197.066 30.856 197.054 30.956 197.034 31.06H192.774C192.826 31.604 192.956 32.028 193.164 32.332C193.372 32.636 193.634 32.85 193.95 32.974C194.266 33.098 194.61 33.16 194.982 33.16C195.254 33.16 195.538 33.132 195.834 33.076C196.13 33.02 196.41 32.932 196.674 32.812L196.818 33.664C196.59 33.764 196.312 33.866 195.984 33.97C195.656 34.07 195.278 34.12 194.85 34.12ZM192.87 30.316H195.966C195.966 30.04 195.914 29.8 195.81 29.596C195.706 29.392 195.548 29.236 195.336 29.128C195.124 29.016 194.854 28.96 194.526 28.96C194.046 28.96 193.676 29.08 193.416 29.32C193.16 29.556 192.978 29.888 192.87 30.316ZM202.511 36.904V32.74L202.691 32.956C202.531 33.344 202.269 33.636 201.905 33.832C201.545 34.024 201.131 34.12 200.663 34.12C200.083 34.12 199.597 33.984 199.205 33.712C198.817 33.44 198.525 33.074 198.329 32.614C198.133 32.15 198.035 31.632 198.035 31.06C198.035 30.524 198.139 30.024 198.347 29.56C198.555 29.092 198.853 28.716 199.241 28.432C199.633 28.144 200.103 28 200.651 28C201.203 28 201.647 28.11 201.983 28.33C202.323 28.546 202.615 28.852 202.859 29.248L202.559 29.464L202.751 28.12H203.591V36.904H202.511ZM200.807 33.16C201.131 33.16 201.425 33.088 201.689 32.944C201.957 32.796 202.171 32.568 202.331 32.26C202.491 31.952 202.571 31.552 202.571 31.06C202.571 30.352 202.399 29.826 202.055 29.482C201.711 29.134 201.295 28.96 200.807 28.96C200.287 28.96 199.879 29.146 199.583 29.518C199.287 29.886 199.139 30.4 199.139 31.06C199.139 31.72 199.287 32.236 199.583 32.608C199.879 32.976 200.287 33.16 200.807 33.16ZM207.363 34.12C206.903 34.12 206.511 34.028 206.187 33.844C205.863 33.656 205.615 33.372 205.443 32.992C205.275 32.612 205.191 32.128 205.191 31.54V28.12H206.271V31.24C206.271 31.864 206.377 32.34 206.589 32.668C206.805 32.996 207.155 33.16 207.639 33.16C207.971 33.16 208.279 33.08 208.563 32.92C208.847 32.76 209.043 32.504 209.151 32.152L208.995 32.74V28.12H210.075V34H209.115L208.899 32.848L209.187 33.04C208.991 33.404 208.751 33.676 208.467 33.856C208.187 34.032 207.819 34.12 207.363 34.12ZM214.564 34.12C213.872 34.12 213.29 33.978 212.818 33.694C212.346 33.41 211.988 33.034 211.744 32.566C211.504 32.094 211.384 31.576 211.384 31.012C211.384 30.464 211.496 29.962 211.72 29.506C211.948 29.05 212.276 28.686 212.704 28.414C213.136 28.138 213.656 28 214.264 28C214.752 28 215.186 28.098 215.566 28.294C215.95 28.486 216.25 28.768 216.466 29.14C216.686 29.508 216.796 29.956 216.796 30.484C216.796 30.568 216.792 30.66 216.784 30.76C216.78 30.856 216.768 30.956 216.748 31.06H212.488C212.54 31.604 212.67 32.028 212.878 32.332C213.086 32.636 213.348 32.85 213.664 32.974C213.98 33.098 214.324 33.16 214.696 33.16C214.968 33.16 215.252 33.132 215.548 33.076C215.844 33.02 216.124 32.932 216.388 32.812L216.532 33.664C216.304 33.764 216.026 33.866 215.698 33.97C215.37 34.07 214.992 34.12 214.564 34.12ZM212.584 30.316H215.68C215.68 30.04 215.628 29.8 215.524 29.596C215.42 29.392 215.262 29.236 215.05 29.128C214.838 29.016 214.568 28.96 214.24 28.96C213.76 28.96 213.39 29.08 213.13 29.32C212.874 29.556 212.692 29.888 212.584 30.316ZM219.752 34.12C219.232 34.12 218.8 34.058 218.456 33.934C218.116 33.81 217.876 33.7 217.736 33.604L217.868 32.56C217.996 32.672 218.222 32.8 218.546 32.944C218.87 33.088 219.256 33.16 219.704 33.16C220.084 33.16 220.374 33.096 220.574 32.968C220.778 32.84 220.88 32.66 220.88 32.428C220.88 32.224 220.814 32.06 220.682 31.936C220.554 31.808 220.398 31.708 220.214 31.636C220.034 31.56 219.864 31.5 219.704 31.456C219.436 31.384 219.158 31.294 218.87 31.186C218.586 31.074 218.346 30.908 218.15 30.688C217.954 30.468 217.856 30.16 217.856 29.764C217.856 29.464 217.928 29.18 218.072 28.912C218.216 28.64 218.45 28.42 218.774 28.252C219.098 28.084 219.528 28 220.064 28C220.456 28 220.774 28.042 221.018 28.126C221.266 28.206 221.48 28.292 221.66 28.384L221.528 29.368C221.356 29.224 221.156 29.102 220.928 29.002C220.7 28.902 220.42 28.852 220.088 28.852C219.752 28.852 219.478 28.916 219.266 29.044C219.054 29.168 218.948 29.368 218.948 29.644C218.948 29.92 219.06 30.116 219.284 30.232C219.512 30.348 219.856 30.476 220.316 30.616C220.46 30.656 220.626 30.714 220.814 30.79C221.006 30.866 221.192 30.968 221.372 31.096C221.552 31.224 221.7 31.392 221.816 31.6C221.936 31.804 221.996 32.06 221.996 32.368C221.996 32.628 221.934 32.894 221.81 33.166C221.686 33.434 221.462 33.66 221.138 33.844C220.814 34.028 220.352 34.12 219.752 34.12ZM225.281 34.12C224.909 34.12 224.611 34.052 224.387 33.916C224.163 33.78 223.999 33.606 223.895 33.394C223.795 33.178 223.745 32.952 223.745 32.716V28.96H222.737L222.833 28.12H223.745V26.668L224.825 26.56V28.12H226.373V28.96H224.825V32.056C224.825 32.432 224.847 32.704 224.891 32.872C224.935 33.04 225.043 33.146 225.215 33.19C225.391 33.234 225.673 33.256 226.061 33.256H226.337L226.253 34.12H225.281Z" fill="#23856D"/>
</g>
<defs>
<filter id="filter0_d_5244_681" x="0" y="0" width="258" height="86" filterUnits="userSpaceOnUse" color-interpolation-filters="sRGB">
<feFlood flood-opacity="0" result="BackgroundImageFix"/>
<feColorMatrix in="SourceAlpha" type="matrix" values="0 0 0 0 0 0 0 0 0 0 0 0 0 0 0 0 0 0 127 0" result="hardAlpha"/>
<feOffset dy="13"/>
<feGaussianBlur stdDeviation="9.5"/>
<feColorMatrix type="matrix" values="0 0 0 0 0 0 0 0 0 0 0 0 0 0 0 0 0 0 0.07 0"/>
<feBlend mode="normal" in2="BackgroundImageFix" result="effect1_dropShadow_5244_681"/>
<feBlend mode="normal" in="SourceGraphic" in2="effect1_dropShadow_5244_681" result="shape"/>
</filter>
<clipPath id="clip0_5244_681">
<rect x="31" y="18" width="24" height="24" rx="12" fill="white"/>
</clipPath>
</defs>
</svg>
