<svg width="72" height="72" viewBox="0 0 72 72" fill="none" xmlns="http://www.w3.org/2000/svg">
<rect width="72" height="72" rx="8" fill="#E9FFFA"/>
<path d="M51.4876 34L51.3556 33.7031L47.015 23.9375C47.015 23.9375 47.015 23.9375 47.015 23.9375C46.8578 23.584 46.6016 23.2837 46.2772 23.073C45.9528 22.8622 45.5743 22.75 45.1875 22.75H26.8125C26.4257 22.75 26.0472 22.8622 25.7228 23.073M51.4876 34L25.7228 23.073M51.4876 34H51.8125M51.4876 34H51.8125M25.7228 23.073C25.3984 23.2837 25.1422 23.584 24.985 23.9375M25.7228 23.073L24.985 23.9375M24.985 23.9375L20.6444 33.7031L20.5124 34H20.1875H18.5C18.3011 34 18.1103 34.079 17.9697 34.2197M24.985 23.9375L17.9697 34.2197M17.9697 34.2197C17.829 34.3603 17.75 34.5511 17.75 34.75C17.75 34.9489 17.829 35.1397 17.9697 35.2803M17.9697 34.2197L17.9697 35.2803M17.9697 35.2803C18.1103 35.421 18.3011 35.5 18.5 35.5H19.75M17.9697 35.2803L19.75 35.5M17.9697 35.2803L17.6161 35.6339L17.9697 35.2803ZM51.8125 34H53.5C53.6989 34 53.8897 34.079 54.0303 34.2197C54.171 34.3603 54.25 34.5511 54.25 34.75C54.25 34.9489 54.171 35.1397 54.0303 35.2803C53.8897 35.421 53.6989 35.5 53.5 35.5H52.25H51.75V36V48.5C51.75 49.0304 51.5393 49.5391 51.1642 49.9142C50.7891 50.2893 50.2804 50.5 49.75 50.5H46C45.4696 50.5 44.9609 50.2893 44.5858 49.9142C44.2107 49.5391 44 49.0304 44 48.5V46V45.5H43.5H28.5H28V46V48.5C28 49.0304 27.7893 49.5391 27.4142 49.9142C27.0391 50.2893 26.5304 50.5 26 50.5H22.25C21.7196 50.5 21.2109 50.2893 20.8358 49.9142C20.4607 49.5391 20.25 49.0304 20.25 48.5V36V35.5M51.8125 34L20.25 35.5M20.25 35.5H19.75M20.25 35.5H19.75M26.8125 24.25H26.4876L26.3556 24.5469L22.4665 33.2969L22.154 34H22.9234H49.0766H49.846L49.5335 33.2969L45.6444 24.5469L45.5124 24.25H45.1875H26.8125ZM26 49H26.5V48.5V46V45.5H26H22.25H21.75V46V48.5V49H22.25H26ZM45.5 48.5V49H46H49.75H50.25V48.5V46V45.5H49.75H46H45.5V46V48.5ZM49.75 44H50.25V43.5V36V35.5H49.75H22.25H21.75V36V43.5V44H22.25H49.75ZM25.25 39.75C25.25 39.5511 25.329 39.3603 25.4697 39.2197C25.6103 39.079 25.8011 39 26 39H28.5C28.6989 39 28.8897 39.079 29.0303 39.2197C29.171 39.3603 29.25 39.5511 29.25 39.75C29.25 39.9489 29.171 40.1397 29.0303 40.2803C28.8897 40.421 28.6989 40.5 28.5 40.5H26C25.8011 40.5 25.6103 40.421 25.4697 40.2803C25.329 40.1397 25.25 39.9489 25.25 39.75ZM42.75 39.75C42.75 39.5511 42.829 39.3603 42.9697 39.2197C43.1103 39.079 43.3011 39 43.5 39H46C46.1989 39 46.3897 39.079 46.5303 39.2197C46.671 39.3603 46.75 39.5511 46.75 39.75C46.75 39.9489 46.671 40.1397 46.5303 40.2803C46.3897 40.421 46.1989 40.5 46 40.5H43.5C43.3011 40.5 43.1103 40.421 42.9697 40.2803C42.829 40.1397 42.75 39.9489 42.75 39.75Z" fill="#23856D" stroke="#23856D"/>
</svg>
