<svg width="72" height="72" viewBox="0 0 72 72" fill="none" xmlns="http://www.w3.org/2000/svg">
<rect width="72" height="72" rx="8" fill="#E9FFFA"/>
<path d="M35.5007 27.6667V28.1667H36.0007H49.334C50.8912 28.1667 52.1673 29.4428 52.1673 31V47.6667C52.1673 49.2239 50.8912 50.5 49.334 50.5H22.6673C21.1101 50.5 19.834 49.2239 19.834 47.6667V24.3333C19.834 22.7761 21.1101 21.5 22.6673 21.5H32.6673C34.2245 21.5 35.5007 22.7761 35.5007 24.3333V27.6667ZM26.0007 48.1667H26.5007V47.6667V44.3333V43.8333H26.0007H22.6673H22.1673V44.3333V47.6667V48.1667H22.6673H26.0007ZM26.0007 41.5H26.5007V41V37.6667V37.1667H26.0007H22.6673H22.1673V37.6667V41V41.5H22.6673H26.0007ZM26.0007 34.8333H26.5007V34.3333V31V30.5H26.0007H22.6673H22.1673V31V34.3333V34.8333H22.6673H26.0007ZM26.0007 28.1667H26.5007V27.6667V24.3333V23.8333H26.0007H22.6673H22.1673V24.3333V27.6667V28.1667H22.6673H26.0007ZM32.6673 48.1667H33.1673V47.6667V44.3333V43.8333H32.6673H29.334H28.834V44.3333V47.6667V48.1667H29.334H32.6673ZM32.6673 41.5H33.1673V41V37.6667V37.1667H32.6673H29.334H28.834V37.6667V41V41.5H29.334H32.6673ZM32.6673 34.8333H33.1673V34.3333V31V30.5H32.6673H29.334H28.834V31V34.3333V34.8333H29.334H32.6673ZM32.6673 28.1667H33.1673V27.6667V24.3333V23.8333H32.6673H29.334H28.834V24.3333V27.6667V28.1667H29.334H32.6673ZM35.5007 47.6667V48.1667H36.0007H47.6673C48.8601 48.1667 49.834 47.1928 49.834 46V32.6667C49.834 31.4739 48.8601 30.5 47.6673 30.5H36.0007H35.5007V31V34.3333V34.8333H36.0007H38.834V37.1667H36.0007H35.5007V37.6667V41V41.5H36.0007H38.834V43.8333H36.0007H35.5007V44.3333V47.6667ZM43.1673 37.1667V34.8333H45.5007V37.1667H43.1673ZM43.1673 43.8333V41.5H45.5007V43.8333H43.1673Z" fill="#23856D" stroke="#23856D"/>
</svg>
