<svg width="117" height="40" viewBox="0 0 117 40" fill="none" xmlns="http://www.w3.org/2000/svg">
<g clip-path="url(#clip0_5273_487)">
<path fill-rule="evenodd" clip-rule="evenodd" d="M25.5557 11.6853C23.9112 10.5865 21.9778 10 20 10V0C23.9556 0 27.8224 1.17298 31.1114 3.37061C34.4004 5.56823 36.9638 8.69181 38.4776 12.3463C39.9913 16.0008 40.3874 20.0222 39.6157 23.9018C38.844 27.7814 36.9392 31.3451 34.1421 34.1421C31.3451 36.9392 27.7814 38.844 23.9018 39.6157C20.0222 40.3874 16.0008 39.9913 12.3463 38.4776C8.69181 36.9638 5.56823 34.4004 3.37061 31.1114C1.17298 27.8224 0 23.9556 0 20H10C10 21.9778 10.5865 23.9112 11.6853 25.5557C12.7841 27.2002 14.3459 28.4819 16.1732 29.2388C18.0004 29.9957 20.0111 30.1937 21.9509 29.8078C23.8907 29.422 25.6725 28.4696 27.0711 27.0711C28.4696 25.6725 29.422 23.8907 29.8078 21.9509C30.1937 20.0111 29.9957 18.0004 29.2388 16.1732C28.4819 14.3459 27.2002 12.7841 25.5557 11.6853Z" fill="#23856D"/>
<path fill-rule="evenodd" clip-rule="evenodd" d="M10 4.33125e-06C10 1.31322 9.74135 2.61358 9.2388 3.82683C8.73625 5.04009 7.99965 6.14248 7.07106 7.07107C6.14249 7.99966 5.04009 8.73625 3.82683 9.2388C2.61357 9.74134 1.31322 10 4.3711e-07 10L0 20C2.62644 20 5.22715 19.4827 7.65368 18.4776C10.0802 17.4725 12.285 15.9993 14.1421 14.1421C15.9993 12.285 17.4725 10.0802 18.4776 7.65367C19.4827 5.22715 20 2.62643 20 0L10 4.33125e-06Z" fill="#23856D"/>
<path d="M57.344 23.344H52.656V21.552H57.344V23.344ZM54.736 16.8H55.264L52.032 26H50.048L54.032 14.8H55.968L59.952 26H57.968L54.736 16.8ZM65.188 26.16C64.58 26.16 64.0547 26.0613 63.612 25.864C63.1693 25.6667 62.756 25.3973 62.372 25.056L62.964 24.64L62.868 26H61.012V14H62.996V19.328L62.516 19.024C62.868 18.6613 63.26 18.3787 63.692 18.176C64.1293 17.9733 64.628 17.872 65.188 17.872C65.972 17.872 66.6307 18.0613 67.164 18.44C67.6973 18.8187 68.1 19.3227 68.372 19.952C68.6493 20.5813 68.788 21.2693 68.788 22.016C68.788 22.7627 68.6493 23.4507 68.372 24.08C68.1 24.7093 67.6973 25.2133 67.164 25.592C66.6307 25.9707 65.972 26.16 65.188 26.16ZM64.9 24.528C65.2947 24.528 65.6307 24.4213 65.908 24.208C66.1853 23.9947 66.396 23.7013 66.54 23.328C66.684 22.9493 66.756 22.512 66.756 22.016C66.756 21.52 66.684 21.0853 66.54 20.712C66.396 20.3333 66.1853 20.0373 65.908 19.824C65.6307 19.6107 65.2947 19.504 64.9 19.504C64.436 19.504 64.0573 19.6107 63.764 19.824C63.4707 20.0373 63.252 20.3333 63.108 20.712C62.9693 21.0853 62.9 21.52 62.9 22.016C62.9 22.512 62.9693 22.9493 63.108 23.328C63.252 23.7013 63.4707 23.9947 63.764 24.208C64.0573 24.4213 64.436 24.528 64.9 24.528ZM70.2686 26V18H72.2526V26H70.2686ZM70.2686 16.784V14.8H72.2526V16.784H70.2686ZM75.9404 26.16C75.5137 26.16 75.1244 26.0667 74.7724 25.88C74.4204 25.688 74.1404 25.4133 73.9324 25.056C73.7244 24.6987 73.6204 24.2667 73.6204 23.76C73.6204 23.3067 73.7244 22.92 73.9324 22.6C74.1457 22.2747 74.423 22.0053 74.7644 21.792C75.111 21.5733 75.4844 21.4027 75.8844 21.28C76.2897 21.152 76.687 21.0587 77.0764 21C77.471 20.9413 77.8177 20.9067 78.1164 20.896C78.095 20.4373 77.9777 20.104 77.7644 19.896C77.551 19.688 77.1884 19.584 76.6764 19.584C76.319 19.584 75.9697 19.6347 75.6284 19.736C75.2924 19.832 74.911 19.984 74.4844 20.192L74.3084 18.576C74.7884 18.3413 75.2684 18.1653 75.7484 18.048C76.2337 17.9307 76.7244 17.872 77.2204 17.872C77.8177 17.872 78.3324 17.9787 78.7644 18.192C79.1964 18.4053 79.5297 18.7493 79.7644 19.224C79.999 19.6933 80.1164 20.3147 80.1164 21.088V23.248C80.1164 23.648 80.135 23.9387 80.1724 24.12C80.2097 24.296 80.279 24.408 80.3804 24.456C80.4817 24.504 80.6284 24.528 80.8204 24.528H81.0764L80.9004 26.16H80.1804C79.8817 26.16 79.615 26.12 79.3804 26.04C79.151 25.9653 78.9537 25.8587 78.7884 25.72C78.623 25.5813 78.4897 25.4187 78.3884 25.232C78.127 25.5253 77.7724 25.7547 77.3244 25.92C76.8817 26.08 76.4204 26.16 75.9404 26.16ZM76.7724 24.64C76.9484 24.64 77.167 24.5947 77.4284 24.504C77.6897 24.408 77.9244 24.2613 78.1324 24.064V22.24C77.759 22.256 77.3857 22.3173 77.0124 22.424C76.639 22.5307 76.327 22.688 76.0764 22.896C75.8257 23.104 75.7004 23.3653 75.7004 23.68C75.7004 24.0053 75.7857 24.248 75.9564 24.408C76.127 24.5627 76.399 24.64 76.7724 24.64ZM86.2789 26V14.8H90.3749C91.1482 14.8 91.8229 14.9227 92.3989 15.168C92.9802 15.4133 93.4309 15.7867 93.7509 16.288C94.0709 16.7893 94.2309 17.424 94.2309 18.192C94.2309 19.0133 94.0549 19.6667 93.7029 20.152C93.3562 20.632 92.8975 21.0133 92.3269 21.296L94.8549 26H92.5669L90.4069 21.84C90.3909 21.84 90.3775 21.84 90.3669 21.84C90.3562 21.84 90.3429 21.84 90.3269 21.84H88.3269V26H86.2789ZM88.3269 20.128H89.8309C90.6735 20.128 91.2602 19.9573 91.5909 19.616C91.9215 19.2693 92.0869 18.832 92.0869 18.304C92.0869 17.744 91.9242 17.3067 91.5989 16.992C91.2735 16.672 90.7109 16.512 89.9109 16.512H88.3269V20.128ZM95.9811 26V18H97.9651V26H95.9811ZM95.9811 16.784V14.8H97.9651V16.784H95.9811ZM103.157 26.16C102.346 26.16 101.664 25.9707 101.109 25.592C100.56 25.2133 100.144 24.7093 99.8609 24.08C99.5835 23.4507 99.4449 22.7627 99.4449 22.016C99.4449 21.2693 99.5835 20.5813 99.8609 19.952C100.144 19.3227 100.56 18.8187 101.109 18.44C101.664 18.0613 102.346 17.872 103.157 17.872C103.744 17.872 104.24 17.9707 104.645 18.168C105.05 18.36 105.408 18.608 105.717 18.912L105.237 19.328V14H107.221V26H105.349L105.253 24.64L105.829 25.056C105.456 25.3973 105.069 25.6667 104.669 25.864C104.269 26.0613 103.765 26.16 103.157 26.16ZM103.445 24.528C103.882 24.528 104.24 24.4213 104.517 24.208C104.794 23.9947 105 23.7013 105.133 23.328C105.266 22.9493 105.333 22.512 105.333 22.016C105.333 21.52 105.266 21.0853 105.133 20.712C105 20.3333 104.794 20.0373 104.517 19.824C104.24 19.6107 103.882 19.504 103.445 19.504C103.029 19.504 102.674 19.6107 102.381 19.824C102.088 20.0373 101.864 20.3333 101.709 20.712C101.554 21.0853 101.477 21.52 101.477 22.016C101.477 22.512 101.554 22.9493 101.709 23.328C101.864 23.7013 102.088 23.9947 102.381 24.208C102.674 24.4213 103.029 24.528 103.445 24.528ZM113.021 26.16C112.056 26.16 111.251 25.968 110.605 25.584C109.965 25.1947 109.485 24.6827 109.165 24.048C108.845 23.408 108.685 22.7093 108.685 21.952C108.685 21.2213 108.835 20.5467 109.133 19.928C109.437 19.3093 109.88 18.8133 110.461 18.44C111.043 18.0613 111.752 17.872 112.589 17.872C113.357 17.872 113.997 18.0293 114.509 18.344C115.021 18.6587 115.405 19.08 115.661 19.608C115.917 20.1307 116.045 20.7093 116.045 21.344C116.045 21.52 116.035 21.6987 116.013 21.88C115.992 22.056 115.96 22.24 115.917 22.432H110.749C110.824 22.928 110.979 23.3307 111.213 23.64C111.453 23.944 111.744 24.168 112.085 24.312C112.432 24.456 112.803 24.528 113.197 24.528C113.661 24.528 114.093 24.4693 114.493 24.352C114.893 24.2293 115.261 24.0693 115.597 23.872L115.693 25.552C115.389 25.712 115.011 25.8533 114.557 25.976C114.104 26.0987 113.592 26.16 113.021 26.16ZM110.797 21.088H114.029C114.029 20.848 113.984 20.608 113.893 20.368C113.803 20.1227 113.651 19.9173 113.437 19.752C113.229 19.5867 112.947 19.504 112.589 19.504C112.077 19.504 111.675 19.6533 111.381 19.952C111.088 20.2507 110.893 20.6293 110.797 21.088Z" fill="#252B42"/>
</g>
<defs>
<clipPath id="clip0_5273_487">
<rect width="117" height="40" fill="white"/>
</clipPath>
</defs>
</svg>
