<svg width="72" height="72" viewBox="0 0 72 72" fill="none" xmlns="http://www.w3.org/2000/svg">
<rect width="72" height="72" rx="8" fill="#E9FFFA"/>
<path d="M49.599 26.424L51.0774 25.5H49.334H22.6673H20.9239L22.4023 26.424L35.7357 34.7573L36.0007 34.9229L36.2657 34.7573L49.599 26.424ZM49.334 46.5H49.834V46V29.3333V28.4312L49.069 28.9093L36.0007 37.077L22.9323 28.9093L22.1673 28.4312V29.3333V46V46.5H22.6673H49.334ZM49.334 23.1666C50.8912 23.1666 52.1673 24.4428 52.1673 26V46C52.1673 47.5571 50.8912 48.8333 49.334 48.8333H22.6673C21.1101 48.8333 19.834 47.5571 19.834 46V26C19.834 24.4428 21.1101 23.1666 22.6673 23.1666H49.334Z" fill="#23856D" stroke="#23856D"/>
</svg>
